<svg width="33" height="33" viewBox="0 0 33 33" fill="none" xmlns="http://www.w3.org/2000/svg">
<path fill-rule="evenodd" clip-rule="evenodd" d="M16.5 33C8.72182 33 4.83273 33 2.41638 30.5836C-1.96695e-07 28.1673 0 24.2781 0 16.5C0 8.72182 -1.96695e-07 4.83273 2.41638 2.41638C4.83273 -1.96695e-07 8.72182 0 16.5 0C24.2781 0 28.1673 -1.96695e-07 30.5836 2.41638C33 4.83273 33 8.72182 33 16.5C33 24.2781 33 28.1673 30.5836 30.5836C28.1673 33 24.2781 33 16.5 33ZM16.5 10.3125C17.1834 10.3125 17.7375 10.8666 17.7375 11.55V15.2625H21.45C22.1334 15.2625 22.6875 15.8166 22.6875 16.5C22.6875 17.1834 22.1334 17.7375 21.45 17.7375H17.7375V21.45C17.7375 22.1334 17.1834 22.6875 16.5 22.6875C15.8166 22.6875 15.2625 22.1334 15.2625 21.45V17.7375H11.55C10.8666 17.7375 10.3125 17.1834 10.3125 16.5C10.3125 15.8166 10.8666 15.2625 11.55 15.2625H15.2625V11.55C15.2625 10.8666 15.8166 10.3125 16.5 10.3125Z" fill="#3F5DFF"/>
</svg>
