<svg width="84" height="96" viewBox="0 0 84 96" fill="none" xmlns="http://www.w3.org/2000/svg">
<path d="M83.7624 24.9595C83.76 24.2828 83.398 23.6583 82.8119 23.32L43.1294 0.672405C42.5412 0.332831 41.8166 0.332831 41.2284 0.672405L1.7835 23.7215C1.19374 24.062 0.831168 24.692 0.833015 25.373L1.07064 71.0578C1.07303 71.7346 1.43503 72.359 2.02112 72.6974L41.7037 95.3355C42.2918 95.675 43.0165 95.675 43.6046 95.3355L83.0495 72.2863C83.6393 71.9458 84.0019 71.3159 84 70.6349L83.7624 24.9595ZM42.3167 24.0851L58.9763 33.5899L59.0285 50.3088L52.4631 46.564L52.4322 37.4037L42.3571 31.6557L32.3319 37.513L32.3604 46.6685L30.1244 47.9707L25.8211 50.7342L25.7665 33.7515L42.3167 24.0851ZM39.432 42.5434L34.7153 45.2927L34.6986 39.8488L39.432 42.5434ZM12.714 55.0874V41.1985L23.4069 34.9396L23.4307 42.5149L19.2842 44.9386L19.3175 51.3021L24.8445 54.4529L50.0798 39.7205L50.1011 47.2958L24.8873 62.0283L12.714 55.0874ZM42.5163 71.9418L28.3969 63.8817L34.6083 59.8897L42.4759 64.3759L50.4172 59.7352L56.9921 63.4849L42.5163 71.9418ZM60.1002 61.85L45.4414 53.493L51.9522 49.672L60.0503 54.2819L65.5441 51.0716L65.5108 44.7081L61.362 42.3319L61.3382 34.7733L72.119 40.93V54.8189L60.1002 61.85Z" fill="#3F5DFF"/>
</svg>
