<svg width="56" height="64" viewBox="0 0 56 64" fill="none" xmlns="http://www.w3.org/2000/svg">
<path d="M55.7602 16.5015C55.7586 16.0464 55.5152 15.6266 55.1211 15.3991L28.4393 0.171242C28.0438 -0.0570808 27.5566 -0.0570808 27.1611 0.171242L0.639095 15.6691C0.242548 15.898 -0.00123711 16.3216 4.72185e-06 16.7795L0.159781 47.4971C0.161387 47.9522 0.40479 48.372 0.798866 48.5995L27.4807 63.821C27.8762 64.0493 28.3634 64.0493 28.7589 63.821L55.2809 48.3231C55.6774 48.0942 55.9212 47.6706 55.92 47.2127L55.7602 16.5015ZM27.8929 15.9135L39.0945 22.3044L39.1296 33.5459L34.7151 31.0279L34.6944 24.8687L27.9201 21.0038L21.1793 24.9422L21.1985 31.0982L19.695 31.9737L16.8016 33.8319L16.7648 22.413L27.8929 15.9135ZM25.9533 28.3246L22.7818 30.1731L22.7706 26.5127L25.9533 28.3246ZM7.98858 36.7589V27.4203L15.1783 23.2119L15.1943 28.3054L12.4063 29.9351L12.4286 34.2137L16.1449 36.3323L33.1126 26.4265L33.127 31.52L16.1737 41.4258L7.98858 36.7589ZM28.0271 48.0915L18.5335 42.672L22.7099 39.9879L27.9999 43.0044L33.3395 39.884L37.7604 42.4052L28.0271 48.0915ZM39.8502 41.306L29.9939 35.6868L34.3716 33.1177L39.8166 36.2173L43.5105 34.0588L43.4882 29.7801L40.6986 28.1824L40.6826 23.1L47.9314 27.2397V36.5783L39.8502 41.306Z" fill="#3F5DFF"/>
</svg>
