<svg width="27" height="28" viewBox="0 0 27 28" fill="none" xmlns="http://www.w3.org/2000/svg">
<path d="M9.60984 0.975342H2.92131C1.44372 0.975342 0.245903 2.17316 0.245903 3.65075V13.0147C0.245903 14.4923 1.44372 15.6901 2.92131 15.6901H9.60984C11.0874 15.6901 12.2852 14.4923 12.2852 13.0147V3.65075C12.2852 2.17316 11.0874 0.975342 9.60984 0.975342Z" fill="#9194A0"/>
<path d="M24.3246 0.975342H17.636C16.1585 0.975342 14.9606 2.17316 14.9606 3.65075V7.66387C14.9606 9.14145 16.1585 10.3393 17.636 10.3393H24.3246C25.8022 10.3393 27 9.14145 27 7.66387V3.65075C27 2.17316 25.8022 0.975342 24.3246 0.975342Z" fill="#9194A0"/>
<path d="M9.60984 18.3655H2.92131C1.44372 18.3655 0.245903 19.5633 0.245903 21.0409V25.054C0.245903 26.5316 1.44372 27.7294 2.92131 27.7294H9.60984C11.0874 27.7294 12.2852 26.5316 12.2852 25.054V21.0409C12.2852 19.5633 11.0874 18.3655 9.60984 18.3655Z" fill="#9194A0"/>
<path d="M24.3246 13.0146H17.636C16.1585 13.0146 14.9606 14.2125 14.9606 15.6901V25.054C14.9606 26.5316 16.1585 27.7294 17.636 27.7294H24.3246C25.8022 27.7294 27 26.5316 27 25.054V15.6901C27 14.2125 25.8022 13.0146 24.3246 13.0146Z" fill="#9194A0"/>
</svg>
