<svg width="27" height="26" viewBox="0 0 27 26" fill="none" xmlns="http://www.w3.org/2000/svg">
<path fill-rule="evenodd" clip-rule="evenodd" d="M3.375 0H23.625C25.489 0 27 1.45508 27 3.25V22.75C27 24.545 25.489 26 23.625 26H3.375C1.51104 26 0 24.545 0 22.75V3.25C0 1.45508 1.51104 0 3.375 0ZM8.4375 9.20833H18.5625C19.4944 9.20833 20.25 8.4808 20.25 7.58333C20.25 6.68587 19.4944 5.95833 18.5625 5.95833H8.4375C7.50552 5.95833 6.75 6.68587 6.75 7.58333C6.75 8.4808 7.50552 9.20833 8.4375 9.20833ZM8.4375 14.625H18.5625C19.4944 14.625 20.25 13.8974 20.25 13C20.25 12.1026 19.4944 11.375 18.5625 11.375H8.4375C7.50552 11.375 6.75 12.1026 6.75 13C6.75 13.8974 7.50552 14.625 8.4375 14.625ZM8.4375 20.0417H18.5625C19.4944 20.0417 20.25 19.3141 20.25 18.4167C20.25 17.5192 19.4944 16.7917 18.5625 16.7917H8.4375C7.50552 16.7917 6.75 17.5192 6.75 18.4167C6.75 19.3141 7.50552 20.0417 8.4375 20.0417Z" fill="#3F5DFF"/>
</svg>
