<?xml version="1.0" encoding="UTF-8"?>
<svg xmlns="http://www.w3.org/2000/svg" xmlns:xlink="http://www.w3.org/1999/xlink" width="22px" height="20px" viewBox="0 0 21 20" version="1.1">
<g id="surface1">
<path style=" stroke:none;fill-rule:nonzero;fill:rgb(100%,100%,100%);fill-opacity:1;" d="M 20.597656 9.96875 C 20.597656 10.386719 20.484375 10.804688 20.261719 11.160156 C 20.042969 11.515625 19.730469 11.804688 19.363281 11.984375 L 3.503906 19.71875 C 3.214844 19.882812 2.894531 19.980469 2.566406 20 C 2.203125 20 1.847656 19.90625 1.53125 19.726562 C 1.214844 19.546875 0.945312 19.289062 0.75 18.976562 C 0.554688 18.664062 0.4375 18.308594 0.410156 17.941406 C 0.382812 17.566406 0.445312 17.195312 0.59375 16.855469 L 3.058594 11.082031 L 9.058594 11.082031 C 9.34375 11.082031 9.621094 10.964844 9.824219 10.753906 C 10.027344 10.546875 10.140625 10.261719 10.140625 9.96875 C 10.140625 9.671875 10.027344 9.386719 9.824219 9.179688 C 9.621094 8.96875 9.34375 8.851562 9.058594 8.851562 L 3.058594 8.851562 L 0.59375 3.132812 C 0.417969 2.71875 0.363281 2.253906 0.449219 1.808594 C 0.53125 1.363281 0.746094 0.953125 1.058594 0.636719 C 1.375 0.320312 1.78125 0.105469 2.210938 0.03125 C 2.648438 -0.046875 3.09375 0.0195312 3.496094 0.210938 L 19.351562 7.949219 C 19.722656 8.128906 20.039062 8.414062 20.257812 8.773438 C 20.480469 9.128906 20.597656 9.542969 20.597656 9.96875 Z M 20.597656 9.96875 "/>
</g>
</svg>
