<?xml version="1.0" encoding="utf-8"?>
<!-- Generator: Adobe Illustrator 17.0.0, SVG Export Plug-In . SVG Version: 6.00 Build 0)  -->
<!DOCTYPE svg PUBLIC "-//W3C//DTD SVG 1.1//EN" "http://www.w3.org/Graphics/SVG/1.1/DTD/svg11.dtd">
<svg version="1.1" id="Layer_1" xmlns="http://www.w3.org/2000/svg" xmlns:xlink="http://www.w3.org/1999/xlink" x="0px" y="0px"
	 width="841.89px" height="595.275px" viewBox="0 0 841.89 595.275" enable-background="new 0 0 841.89 595.275"
	 xml:space="preserve">
<g>
	<g>
		<g>
			<path fill="#E73137" d="M179.023,302.901l-10.496,10.481l0.478,0.482c9.11,9.09,9.11,23.874,0,32.971
				c-9.1,9.111-23.871,9.102-32.974,0l-5.73-5.723l49.205-49.207c14.904-14.9,14.896-39.062,0-53.963
				c-14.903-14.896-39.062-14.896-53.968,0l-5.735,5.728l-5.721-5.728c-14.892-14.896-39.068-14.896-53.969,0
				c-14.903,14.901-14.903,39.073,0,53.963l49.201,49.207l-5.718,5.723c-9.115,9.102-23.881,9.102-32.986,0
				c-9.102-9.106-9.102-23.881-0.005-32.971l0.481-0.482l-10.497-10.481l-0.476,0.46c-14.904,14.9-14.904,39.084,0,53.964
				c14.901,14.903,39.077,14.903,53.969,0l5.721-5.713l5.735,5.723c14.906,14.894,39.065,14.894,53.968-0.01
				c14.896-14.88,14.904-39.064,0-53.954L179.023,302.901z M92.078,292.391l27.724-27.736l27.739,27.736l10.491-10.489
				l-27.731-27.736l5.73-5.722c9.11-9.109,23.874-9.109,32.974,0c9.11,9.108,9.11,23.867,0.012,32.974
				c-16.42,16.389-32.808,32.803-49.215,49.204c-16.388-16.401-32.788-32.815-49.198-49.204c-9.097-9.108-9.097-23.867,0.005-32.974
				c9.105-9.109,23.876-9.109,32.986,0l5.718,5.722l-27.727,27.736"/>
		</g>
		<g>
			<path fill="#003056" d="M253.602,333.067c-4.463,0-8.909-0.527-13.303-1.582c-4.398-1.06-8.614-2.535-12.63-4.425
				c-0.126,0-0.412-0.103-0.864-0.332c-0.465-0.29-0.689-0.486-0.689-0.594c0-0.06,0.117-0.285,0.341-0.693
				c0.233-0.4,0.523-0.908,0.864-1.505c0.349-0.595,0.747-1.287,1.215-2.057c0.455-0.773,0.916-1.55,1.371-2.351
				c0.974-1.605,1.901-3.122,2.764-4.572c0.862-1.429,1.468-2.479,1.808-3.099c0.746,0.3,1.463,0.62,2.155,1.042
				c3.104,1.554,6.219,2.745,9.343,3.571c3.146,0.844,6.462,1.256,9.972,1.256c0.966,0,2.016-0.047,3.142-0.129
				c1.125-0.085,2.137-0.314,3.056-0.647c0.92-0.344,1.68-0.886,2.286-1.598c0.603-0.729,0.906-1.748,0.906-3.077
				c0-0.63-0.174-1.183-0.523-1.678c-0.348-0.484-0.769-0.913-1.293-1.291c-0.515-0.373-1.059-0.698-1.643-0.993
				c-0.576-0.286-1.108-0.522-1.631-0.688c-1.205-0.465-2.436-0.803-3.71-1.036c-1.258-0.229-2.531-0.497-3.791-0.777
				c-1.663-0.402-3.303-0.781-4.909-1.118c-1.608-0.354-3.164-0.754-4.657-1.211c-1.55-0.466-3.039-0.969-4.435-1.511
				c-1.417-0.554-2.721-1.198-3.924-1.944c-2.475-1.493-4.449-3.509-5.908-6.013c-1.468-2.5-2.196-5.824-2.196-9.966
				c0-1.434,0.156-2.884,0.469-4.353c0.319-1.476,0.797-2.864,1.422-4.189c1.277-2.652,2.91-4.841,4.921-6.571
				c2.002-1.727,4.227-3.081,6.674-4.056c2.439-0.974,5.01-1.663,7.719-2.065c2.708-0.41,5.403-0.613,8.104-0.613
				c4.423,0,8.787,0.538,13.096,1.603c4.308,1.076,8.42,2.824,12.335,5.255c-1.442,2.42-2.834,4.809-4.188,7.144
				c-1.349,2.338-2.711,4.714-4.094,7.123c-3.334-1.611-6.571-2.93-9.691-3.962c-3.137-1.033-6.519-1.551-10.131-1.551
				c-0.864,0-1.771,0.037-2.714,0.13c-0.949,0.08-1.827,0.293-2.624,0.649c-0.81,0.34-1.472,0.845-1.997,1.499
				c-0.51,0.662-0.769,1.535-0.769,2.626c0,0.813,0.169,1.486,0.512,2.062c0.403,0.64,1.138,1.197,2.208,1.68
				c1.057,0.498,2.365,0.931,3.916,1.333c1.558,0.398,3.246,0.783,5.08,1.158c1.849,0.38,3.77,0.822,5.783,1.342
				c1.956,0.521,3.919,1.101,5.904,1.761c1.981,0.669,3.854,1.47,5.606,2.415c1.746,0.946,3.311,2.066,4.692,3.359
				c1.372,1.287,2.478,2.816,3.282,4.594c0.625,1.32,1.059,2.743,1.29,4.262c0.229,1.522,0.346,3.03,0.346,4.52
				c0,4.353-0.894,7.955-2.679,10.758c-1.775,2.825-4.111,5.037-6.98,6.673c-2.871,1.632-6.12,2.793-9.744,3.442
				C260.855,332.746,257.238,333.067,253.602,333.067"/>
			<path fill="#003056" d="M318.48,310.226h-12.154v20.777h-17.932v-66.89h30.085c3.218,0,6.307,0.543,9.27,1.625
				c2.959,1.105,5.566,2.621,7.842,4.564c2.264,1.96,4.08,4.32,5.435,7.081c1.342,2.757,2.021,5.773,2.021,9.049
				c0,3.333-0.679,6.431-2.021,9.302c-1.355,2.877-3.17,5.395-5.435,7.557c-2.275,2.15-4.883,3.849-7.842,5.076
				C324.787,309.611,321.698,310.226,318.48,310.226 M317.184,279.019h-10.428v14.391h10.428c1.041,0,2.015-0.177,2.937-0.556
				c0.916-0.367,1.721-0.873,2.414-1.538c0.687-0.651,1.233-1.413,1.634-2.271c0.397-0.861,0.604-1.8,0.604-2.832
				c0-1.019-0.207-1.967-0.604-2.82c-0.401-0.857-0.948-1.615-1.634-2.275c-0.693-0.652-1.499-1.164-2.414-1.533
				C319.199,279.195,318.225,279.019,317.184,279.019"/>
			<path fill="#003056" d="M383.168,333.067c-4.939,0-9.562-0.908-13.867-2.753c-4.313-1.831-8.076-4.356-11.295-7.55
				c-3.218-3.19-5.764-6.948-7.629-11.248c-1.868-4.305-2.804-8.898-2.804-13.796c0-4.879,0.936-9.477,2.804-13.787
				c1.865-4.305,4.411-8.062,7.629-11.243c3.219-3.198,6.981-5.725,11.295-7.597c4.305-1.862,8.927-2.798,13.867-2.798
				c4.887,0,9.506,0.936,13.842,2.798c4.341,1.872,8.121,4.398,11.33,7.597c3.223,3.181,5.767,6.938,7.631,11.243
				c1.863,4.311,2.804,8.908,2.804,13.787c0,4.897-0.94,9.491-2.804,13.796c-1.864,4.3-4.408,8.058-7.631,11.248
				c-3.209,3.193-6.989,5.719-11.33,7.55C392.674,332.159,388.055,333.067,383.168,333.067 M383.168,279.364
				c-2.525,0-4.865,0.5-7.02,1.513c-2.149,1.007-4.002,2.34-5.563,4.007c-1.538,1.671-2.768,3.598-3.66,5.817
				c-0.891,2.215-1.334,4.547-1.334,7.02c0,2.413,0.444,4.753,1.334,6.983c0.892,2.243,2.122,4.191,3.66,5.857
				c1.561,1.674,3.415,3.004,5.563,4.015c2.155,1.015,4.495,1.501,7.02,1.501c2.537,0,4.879-0.486,7.025-1.501
				c2.164-1.011,4.006-2.341,5.568-4.015c1.548-1.666,2.77-3.614,3.661-5.857c0.891-2.23,1.343-4.57,1.343-6.983
				c0-2.473-0.452-4.805-1.343-7.02c-0.892-2.22-2.113-4.146-3.661-5.817c-1.562-1.667-3.404-3-5.568-4.007
				C388.047,279.864,385.705,279.364,383.168,279.364"/>
			<polygon fill="#003056" points="472.651,280.659 454.286,280.659 454.286,331.003 436.104,331.003 436.104,280.659 
				417.73,280.659 416.529,279.46 416.529,264.113 473.851,264.113 473.851,279.46 			"/>
			<path fill="#003056" d="M509.536,333.067c-4.942,0-9.556-0.935-13.833-2.802c-4.286-1.86-8.015-4.416-11.209-7.672
				c-3.183-3.247-5.701-7.003-7.536-11.294c-1.842-4.272-2.76-8.826-2.76-13.666c0-4.835,0.918-9.38,2.76-13.664
				c1.835-4.272,4.354-8.036,7.536-11.279c3.194-3.242,6.923-5.81,11.209-7.677c4.277-1.865,8.891-2.812,13.833-2.812
				c4.49,0,8.792,0.821,12.927,2.46c4.141,1.641,7.962,4.013,11.474,7.126l-13.792,12.06c-3.34-2.36-6.835-3.531-10.526-3.531
				c-2.406,0-4.657,0.455-6.717,1.369c-2.066,0.925-3.858,2.189-5.347,3.794s-2.681,3.463-3.539,5.562
				c-0.864,2.105-1.285,4.299-1.285,6.593c0,2.354,0.421,4.584,1.285,6.686c0.858,2.094,2.05,3.933,3.539,5.516
				c1.488,1.586,3.257,2.842,5.302,3.798c2.046,0.943,4.263,1.418,6.68,1.418c2.758,0,5.335-0.64,7.717-1.896
				c2.379-1.266,4.473-3.045,6.24-5.348l14.23,11.553c-3.559,4.362-7.776,7.745-12.64,10.138
				C520.242,331.87,515.058,333.067,509.536,333.067"/>
			<polygon fill="#003056" points="584.49,331.003 584.49,305.732 560.783,305.732 560.783,331.003 542.251,331.003 
				542.251,264.113 560.783,264.113 560.783,289.632 584.49,289.632 584.49,264.113 603.193,264.113 603.193,331.003 			"/>
			<polygon fill="#003056" points="607.708,331.003 607.708,264.113 661.076,264.113 661.076,280.052 625.123,280.052 
				625.123,289.632 659.011,289.632 659.011,305.563 625.123,305.563 625.123,315.128 661.076,315.128 661.076,331.003 			"/>
			<path fill="#003056" d="M700.938,333.067c-4.946,0-9.556-0.935-13.838-2.802c-4.276-1.86-8.015-4.416-11.208-7.672
				c-3.179-3.247-5.702-7.003-7.532-11.294c-1.842-4.272-2.768-8.826-2.768-13.666c0-4.835,0.926-9.38,2.768-13.664
				c1.83-4.272,4.354-8.036,7.532-11.279c3.193-3.242,6.932-5.81,11.208-7.677c4.282-1.865,8.892-2.812,13.838-2.812
				c4.484,0,8.787,0.821,12.937,2.46c4.14,1.641,7.957,4.013,11.46,7.126l-13.793,12.06c-3.34-2.36-6.84-3.531-10.526-3.531
				c-2.401,0-4.648,0.455-6.717,1.369c-2.071,0.925-3.857,2.189-5.342,3.794c-1.504,1.605-2.675,3.463-3.535,5.562
				c-0.863,2.105-1.294,4.299-1.294,6.593c0,2.354,0.431,4.584,1.294,6.686c0.86,2.094,2.031,3.933,3.535,5.516
				c1.484,1.586,3.262,2.842,5.292,3.798c2.051,0.943,4.277,1.418,6.689,1.418c2.754,0,5.33-0.64,7.717-1.896
				c2.374-1.266,4.458-3.045,6.256-5.348l14.226,11.553c-3.573,4.362-7.783,7.745-12.641,10.138
				C711.64,331.87,706.454,333.067,700.938,333.067"/>
			<polygon fill="#003056" points="765.635,295.734 792.096,331.003 770.369,331.003 752.012,308.507 752.012,331.003 
				733.653,331.003 733.653,264.113 752.012,264.113 752.012,286.609 770.369,264.113 792.954,264.113 			"/>
		</g>
	</g>
	<g>
		<g>
			<path fill="#E73137" d="M508.896,354.534v7.578h-1.382v-16.758h5.586c1.797,0,3.175,0.394,4.135,1.181
				c0.959,0.787,1.439,1.937,1.439,3.449c0,0.892-0.256,1.688-0.766,2.39c-0.511,0.703-1.234,1.215-2.171,1.537
				c1.036,0.262,1.783,0.729,2.239,1.4c0.457,0.672,0.686,1.514,0.686,2.527v1.578c0,0.521,0.062,0.99,0.185,1.404
				c0.122,0.415,0.326,0.754,0.61,1.014v0.277h-1.405c-0.284-0.277-0.483-0.664-0.599-1.164c-0.115-0.498-0.173-1.018-0.173-1.555
				v-1.531c0-1.029-0.332-1.841-0.996-2.436c-0.664-0.596-1.592-0.893-2.781-0.893h-4.607V354.534z M508.896,353.358h4.043
				c1.513,0,2.618-0.305,3.316-0.915c0.699-0.61,1.048-1.434,1.048-2.47c0-1.106-0.347-1.957-1.042-2.552
				c-0.694-0.595-1.749-0.893-3.161-0.893h-4.204L508.896,353.358L508.896,353.358z"/>
			<path fill="#E73137" d="M527.559,362.354c-1.612,0-2.921-0.569-3.927-1.71s-1.509-2.605-1.509-4.395v-0.633
				c0-1.797,0.509-3.278,1.526-4.445s2.278-1.75,3.783-1.75c1.512,0,2.681,0.484,3.507,1.456c0.825,0.972,1.238,2.278,1.238,3.922
				v1.071h-8.673v0.379c0,1.422,0.359,2.6,1.077,3.537c0.718,0.936,1.71,1.404,2.977,1.404c0.761,0,1.459-0.125,2.097-0.374
				c0.637-0.249,1.167-0.585,1.589-1.008l0.588,0.944c-0.438,0.461-1.012,0.843-1.722,1.146
				C529.399,362.202,528.55,362.354,527.559,362.354z M527.433,350.595c-1.06,0-1.932,0.381-2.614,1.141
				c-0.684,0.76-1.083,1.724-1.198,2.891l0.034,0.068h7.141v-0.287c0-1.105-0.29-2.018-0.869-2.735
				C529.346,350.954,528.515,350.595,527.433,350.595z"/>
			<path fill="#E73137" d="M534.636,355.985c0-1.988,0.421-3.58,1.261-4.774c0.841-1.194,2.014-1.79,3.519-1.79
				c0.853,0,1.6,0.18,2.24,0.541c0.641,0.36,1.173,0.871,1.595,1.531v-7.348h1.383v17.967h-1.129l-0.196-1.809
				c-0.422,0.66-0.959,1.167-1.612,1.52c-0.652,0.354-1.42,0.53-2.303,0.53c-1.49,0-2.655-0.555-3.496-1.664
				c-0.84-1.109-1.261-2.597-1.261-4.463L534.636,355.985L534.636,355.985z M536.018,356.227c0,1.505,0.302,2.702,0.904,3.593
				c0.603,0.892,1.511,1.336,2.724,1.336c0.891,0,1.632-0.197,2.223-0.592c0.592-0.396,1.052-0.943,1.382-1.642v-5.908
				c-0.314-0.706-0.76-1.282-1.336-1.728c-0.575-0.445-1.324-0.668-2.245-0.668c-1.214,0-2.125,0.497-2.735,1.491
				c-0.61,0.995-0.916,2.286-0.916,3.876v0.242H536.018z"/>
			<path fill="#E73137" d="M553.251,362.354c-1.612,0-2.921-0.569-3.927-1.71s-1.509-2.605-1.509-4.395v-0.633
				c0-1.797,0.509-3.278,1.526-4.445s2.278-1.75,3.783-1.75c1.512,0,2.681,0.484,3.507,1.456c0.825,0.972,1.238,2.278,1.238,3.922
				v1.071h-8.673v0.379c0,1.422,0.359,2.6,1.077,3.537c0.718,0.936,1.71,1.404,2.977,1.404c0.761,0,1.459-0.125,2.097-0.374
				c0.637-0.249,1.167-0.585,1.589-1.008l0.588,0.944c-0.438,0.461-1.012,0.843-1.722,1.146
				C555.092,362.202,554.242,362.354,553.251,362.354z M553.125,350.595c-1.06,0-1.932,0.381-2.614,1.141
				c-0.684,0.76-1.083,1.724-1.198,2.891l0.034,0.068h7.141v-0.287c0-1.105-0.29-2.018-0.869-2.735
				C555.038,350.954,554.207,350.595,553.125,350.595z"/>
			<path fill="#E73137" d="M561.676,362.112v-11.333h-2.073v-1.129h2.073v-1.589c0-1.32,0.364-2.344,1.094-3.069
				s1.743-1.089,3.041-1.089c0.514,0,1.036,0.059,1.566,0.173c0.529,0.115,1.066,0.284,1.612,0.507l-0.23,1.187
				c-0.469-0.192-0.922-0.342-1.359-0.449s-0.937-0.161-1.497-0.161c-0.937,0-1.646,0.25-2.125,0.748
				c-0.479,0.5-0.72,1.217-0.72,2.154v1.589h2.914v1.129h-2.914v11.333L561.676,362.112L561.676,362.112z M569.737,362.112h-1.382
				V349.65h1.382V362.112z"/>
			<path fill="#E73137" d="M574.971,349.65l0.127,2.165c0.407-0.76,0.948-1.35,1.624-1.768s1.478-0.627,2.407-0.627
				c1.351,0,2.38,0.412,3.086,1.237c0.707,0.825,1.06,2.113,1.06,3.864v7.59h-1.382v-7.578c0-1.429-0.267-2.438-0.8-3.029
				c-0.534-0.592-1.292-0.887-2.275-0.887c-0.982,0-1.775,0.242-2.378,0.726s-1.038,1.132-1.307,1.946v8.822h-1.383V349.65H574.971z
				"/>
			<path fill="#E73137" d="M588.636,346.08h-1.371v-1.935h1.371V346.08z M588.636,362.112h-1.371V349.65h1.371V362.112z"/>
			<path fill="#E73137" d="M593.88,349.65l0.127,2.165c0.407-0.76,0.948-1.35,1.624-1.768s1.478-0.627,2.407-0.627
				c1.351,0,2.38,0.412,3.086,1.237c0.707,0.825,1.06,2.113,1.06,3.864v7.59h-1.382v-7.578c0-1.429-0.267-2.438-0.8-3.029
				c-0.534-0.592-1.292-0.887-2.275-0.887c-0.982,0-1.775,0.242-2.378,0.726s-1.038,1.132-1.307,1.946v8.822h-1.383V349.65H593.88z"
				/>
			<path fill="#E73137" d="M605.506,355.985c0-1.988,0.421-3.58,1.262-4.774s2.013-1.79,3.518-1.79c0.883,0,1.651,0.189,2.304,0.569
				s1.19,0.919,1.612,1.618l0.196-1.958h1.117v12.53c0,1.59-0.438,2.814-1.313,3.674c-0.875,0.86-2.115,1.29-3.72,1.29
				c-0.599,0-1.238-0.073-1.918-0.219c-0.679-0.146-1.272-0.345-1.779-0.599l0.266-1.164c0.499,0.246,1.03,0.433,1.595,0.559
				c0.564,0.127,1.169,0.191,1.813,0.191c1.229,0,2.146-0.315,2.753-0.945c0.606-0.629,0.91-1.559,0.91-2.787v-1.762
				c-0.423,0.621-0.958,1.1-1.607,1.434c-0.648,0.334-1.398,0.501-2.251,0.501c-1.49,0-2.654-0.557-3.495-1.67
				s-1.262-2.599-1.262-4.457L605.506,355.985L605.506,355.985z M606.888,356.227c0,1.505,0.304,2.702,0.91,3.593
				c0.606,0.892,1.517,1.336,2.729,1.336c0.875,0,1.61-0.197,2.206-0.592c0.595-0.396,1.057-0.939,1.388-1.631v-5.942
				c-0.315-0.698-0.763-1.269-1.342-1.71c-0.58-0.441-1.323-0.662-2.229-0.662c-1.214,0-2.127,0.499-2.741,1.497
				s-0.922,2.288-0.922,3.87v0.241H606.888z"/>
			<path fill="#E73137" d="M628.538,357.298l0.519,2.707h0.069l0.587-2.707l3.501-11.955h1.394l3.513,11.955l0.564,2.718h0.069
				l0.553-2.718l2.96-11.955h1.497l-4.296,16.77h-1.313l-3.789-12.865l-0.414-1.808h-0.069l-0.392,1.808l-3.835,12.865h-1.312
				l-4.296-16.77h1.497L628.538,357.298z"/>
			<path fill="#E73137" d="M651.115,362.354c-1.612,0-2.921-0.569-3.927-1.71s-1.509-2.605-1.509-4.395v-0.633
				c0-1.797,0.509-3.278,1.526-4.445s2.278-1.75,3.783-1.75c1.512,0,2.681,0.484,3.507,1.456c0.825,0.972,1.238,2.278,1.238,3.922
				v1.071h-8.673v0.379c0,1.422,0.359,2.6,1.077,3.537c0.718,0.936,1.71,1.404,2.977,1.404c0.761,0,1.459-0.125,2.097-0.374
				c0.637-0.249,1.167-0.585,1.589-1.008l0.588,0.944c-0.438,0.461-1.012,0.843-1.722,1.146
				C652.956,362.202,652.106,362.354,651.115,362.354z M650.989,350.595c-1.06,0-1.932,0.381-2.614,1.141
				c-0.684,0.76-1.083,1.724-1.198,2.891l0.034,0.068h7.141v-0.287c0-1.105-0.29-2.018-0.869-2.735
				C652.902,350.954,652.071,350.595,650.989,350.595z"/>
			<path fill="#E73137" d="M660.277,362.112h-1.371v-17.967h1.371V362.112z"/>
			<path fill="#E73137" d="M665.845,362.112h-1.371v-17.967h1.371V362.112z"/>
			<path fill="#E73137" d="M671.09,349.65l0.127,2.165c0.407-0.76,0.948-1.35,1.624-1.768s1.478-0.627,2.407-0.627
				c1.351,0,2.38,0.412,3.086,1.237c0.707,0.825,1.06,2.113,1.06,3.864v7.59h-1.382v-7.578c0-1.429-0.267-2.438-0.8-3.029
				c-0.534-0.592-1.292-0.887-2.275-0.887c-0.982,0-1.775,0.242-2.378,0.726s-1.038,1.132-1.307,1.946v8.822h-1.383V349.65H671.09z"
				/>
			<path fill="#E73137" d="M687.943,362.354c-1.612,0-2.921-0.569-3.927-1.71s-1.509-2.605-1.509-4.395v-0.633
				c0-1.797,0.509-3.278,1.526-4.445s2.278-1.75,3.783-1.75c1.512,0,2.681,0.484,3.507,1.456c0.825,0.972,1.238,2.278,1.238,3.922
				v1.071h-8.673v0.379c0,1.422,0.359,2.6,1.077,3.537c0.718,0.936,1.71,1.404,2.977,1.404c0.761,0,1.459-0.125,2.097-0.374
				c0.637-0.249,1.167-0.585,1.589-1.008l0.588,0.944c-0.438,0.461-1.012,0.843-1.722,1.146
				C689.784,362.202,688.935,362.354,687.943,362.354z M687.817,350.595c-1.06,0-1.932,0.381-2.614,1.141
				c-0.684,0.76-1.083,1.724-1.198,2.891l0.034,0.068h7.141v-0.287c0-1.105-0.29-2.018-0.869-2.735
				C689.73,350.954,688.899,350.595,687.817,350.595z"/>
			<path fill="#E73137" d="M703.024,358.922c0-0.583-0.239-1.093-0.72-1.526c-0.479-0.434-1.346-0.789-2.597-1.064
				c-1.475-0.308-2.57-0.729-3.288-1.262s-1.077-1.28-1.077-2.24c0-0.951,0.401-1.758,1.204-2.418c0.802-0.66,1.863-0.99,3.185-0.99
				c1.389,0,2.499,0.351,3.328,1.053c0.829,0.703,1.225,1.568,1.186,2.598l-0.022,0.068h-1.278c0-0.683-0.294-1.277-0.881-1.785
				c-0.588-0.506-1.365-0.76-2.332-0.76c-0.999,0-1.751,0.219-2.258,0.656s-0.76,0.949-0.76,1.532c0,0.568,0.217,1.038,0.65,1.411
				c0.434,0.372,1.3,0.7,2.597,0.984c1.459,0.322,2.562,0.771,3.312,1.348s1.123,1.352,1.123,2.326c0,1.037-0.421,1.879-1.262,2.527
				c-0.84,0.649-1.952,0.974-3.334,0.974c-1.513,0-2.7-0.36-3.564-1.083c-0.863-0.721-1.272-1.581-1.227-2.579l0.023-0.069h1.267
				c0.054,0.898,0.421,1.551,1.1,1.958c0.68,0.407,1.48,0.61,2.401,0.61c0.998,0,1.785-0.223,2.361-0.668
				S703.024,359.544,703.024,358.922z"/>
			<path fill="#E73137" d="M715.249,358.922c0-0.583-0.239-1.093-0.72-1.526c-0.479-0.434-1.346-0.789-2.597-1.064
				c-1.475-0.308-2.57-0.729-3.288-1.262s-1.077-1.28-1.077-2.24c0-0.951,0.401-1.758,1.204-2.418c0.802-0.66,1.863-0.99,3.185-0.99
				c1.389,0,2.499,0.351,3.328,1.053c0.829,0.703,1.225,1.568,1.186,2.598l-0.022,0.068h-1.278c0-0.683-0.294-1.277-0.881-1.785
				c-0.588-0.506-1.365-0.76-2.332-0.76c-0.999,0-1.751,0.219-2.258,0.656s-0.76,0.949-0.76,1.532c0,0.568,0.217,1.038,0.65,1.411
				c0.434,0.372,1.3,0.7,2.597,0.984c1.459,0.322,2.562,0.771,3.312,1.348s1.123,1.352,1.123,2.326c0,1.037-0.421,1.879-1.262,2.527
				c-0.84,0.649-1.952,0.974-3.334,0.974c-1.513,0-2.7-0.36-3.564-1.083c-0.863-0.721-1.272-1.581-1.227-2.579l0.023-0.069h1.267
				c0.054,0.898,0.421,1.551,1.1,1.958c0.68,0.407,1.48,0.61,2.401,0.61c0.998,0,1.785-0.223,2.361-0.668
				S715.249,359.544,715.249,358.922z"/>
			<path fill="#E73137" d="M728.607,352.956c-0.622-0.768-1.083-1.469-1.382-2.102c-0.3-0.634-0.449-1.285-0.449-1.953
				c0-1.213,0.341-2.148,1.024-2.81c0.684-0.66,1.62-0.99,2.811-0.99c1.105,0,1.982,0.311,2.632,0.933
				c0.648,0.622,0.973,1.405,0.973,2.35c0,0.691-0.173,1.286-0.519,1.785c-0.345,0.499-0.845,0.998-1.497,1.497l-1.831,1.405
				l4.745,5.539c0.376-0.545,0.668-1.155,0.875-1.831c0.208-0.675,0.312-1.397,0.312-2.165h1.267c0,0.982-0.141,1.887-0.42,2.713
				c-0.281,0.824-0.686,1.571-1.216,2.239l2.131,2.487l-0.022,0.059h-1.578l-1.405-1.625c-0.652,0.6-1.366,1.061-2.143,1.383
				c-0.775,0.322-1.612,0.483-2.51,0.483c-1.605,0-2.876-0.411-3.812-1.231c-0.937-0.822-1.405-1.916-1.405-3.283
				c0-0.922,0.278-1.752,0.835-2.493s1.361-1.495,2.413-2.263L728.607,352.956z M730.404,361.19c0.706,0,1.395-0.139,2.066-0.414
				c0.672-0.277,1.276-0.672,1.814-1.187l-4.769-5.552c-0.038-0.038-0.07-0.07-0.098-0.098c-0.026-0.027-0.048-0.056-0.063-0.086
				l-0.541,0.414c-0.891,0.723-1.487,1.375-1.791,1.958c-0.303,0.583-0.455,1.121-0.455,1.612c0,0.952,0.328,1.749,0.985,2.391
				C728.21,360.87,729.16,361.19,730.404,361.19z M728.158,348.879c0,0.507,0.121,1.032,0.362,1.577
				c0.242,0.546,0.612,1.125,1.111,1.74l2.039-1.521c0.445-0.346,0.762-0.706,0.95-1.083c0.188-0.376,0.282-0.779,0.282-1.209
				c0-0.606-0.202-1.109-0.604-1.509c-0.403-0.399-0.966-0.599-1.688-0.599c-0.783,0-1.388,0.25-1.814,0.748
				C728.371,347.524,728.158,348.142,728.158,348.879z"/>
			<path fill="#E73137" d="M758.503,356.872l0.023,0.068c0.03,1.644-0.507,2.957-1.612,3.939s-2.557,1.474-4.354,1.474
				c-1.866,0-3.371-0.673-4.515-2.021c-1.145-1.348-1.716-3.093-1.716-5.234v-2.73c0-2.135,0.571-3.879,1.716-5.234
				c1.144-1.354,2.648-2.032,4.515-2.032c1.819,0,3.276,0.479,4.37,1.439c1.095,0.96,1.626,2.28,1.596,3.962l-0.023,0.068h-1.29
				c0-1.351-0.412-2.404-1.237-3.16c-0.826-0.757-1.964-1.135-3.415-1.135c-1.467,0-2.644,0.568-3.53,1.704
				c-0.887,1.137-1.33,2.591-1.33,4.365v2.753c0,1.796,0.443,3.261,1.33,4.393c0.887,1.133,2.063,1.699,3.53,1.699
				c1.451,0,2.589-0.369,3.415-1.105c0.825-0.737,1.237-1.809,1.237-3.213L758.503,356.872L758.503,356.872z"/>
			<path fill="#E73137" d="M769.853,362.112c-0.085-0.438-0.148-0.814-0.19-1.129s-0.063-0.637-0.063-0.968
				c-0.43,0.676-1.032,1.234-1.808,1.676s-1.666,0.662-2.672,0.662c-1.221,0-2.167-0.324-2.839-0.974
				c-0.672-0.648-1.008-1.529-1.008-2.643s0.487-2.016,1.462-2.707c0.976-0.69,2.242-1.036,3.801-1.036h3.063v-1.543
				c0-0.891-0.282-1.589-0.847-2.097c-0.563-0.506-1.36-0.76-2.39-0.76c-0.944,0-1.706,0.23-2.286,0.691
				c-0.579,0.461-0.869,1.04-0.869,1.738h-1.278l-0.023-0.068c-0.046-0.938,0.355-1.76,1.204-2.471
				c0.848-0.71,1.956-1.064,3.322-1.064s2.465,0.349,3.294,1.047c0.829,0.699,1.244,1.701,1.244,3.006v6.127
				c0,0.438,0.024,0.864,0.074,1.279c0.05,0.414,0.133,0.825,0.248,1.232h-1.439V362.112z M765.269,361.133
				c1.06,0,1.977-0.251,2.753-0.755c0.775-0.502,1.301-1.148,1.577-1.939v-2.385h-3.075c-1.121,0-2.046,0.268-2.775,0.801
				s-1.094,1.177-1.094,1.929c0,0.706,0.232,1.274,0.696,1.704C763.815,360.918,764.455,361.133,765.269,361.133z"/>
			<path fill="#E73137" d="M780.545,350.837l-0.979-0.069c-0.868,0-1.58,0.244-2.137,0.731c-0.557,0.488-0.954,1.157-1.191,2.01
				v8.604h-1.383V349.65h1.21l0.173,2.073v0.139c0.36-0.768,0.844-1.367,1.45-1.797s1.329-0.645,2.166-0.645
				c0.168,0,0.33,0.013,0.483,0.039c0.153,0.027,0.28,0.057,0.38,0.087L780.545,350.837z"/>
			<path fill="#E73137" d="M787.852,362.354c-1.612,0-2.921-0.569-3.927-1.71s-1.509-2.605-1.509-4.395v-0.633
				c0-1.797,0.509-3.278,1.526-4.445s2.278-1.75,3.783-1.75c1.512,0,2.681,0.484,3.507,1.456c0.825,0.972,1.238,2.278,1.238,3.922
				v1.071h-8.673v0.379c0,1.422,0.359,2.6,1.077,3.537c0.718,0.936,1.71,1.404,2.977,1.404c0.761,0,1.459-0.125,2.097-0.374
				c0.637-0.249,1.167-0.585,1.589-1.008l0.588,0.944c-0.438,0.461-1.012,0.843-1.722,1.146
				C789.692,362.202,788.843,362.354,787.852,362.354z M787.726,350.595c-1.06,0-1.932,0.381-2.614,1.141
				c-0.684,0.76-1.083,1.724-1.198,2.891l0.034,0.068h7.141v-0.287c0-1.105-0.29-2.018-0.869-2.735
				C789.639,350.954,788.808,350.595,787.726,350.595z"/>
		</g>
	</g>
</g>
</svg>
